<svg xmlns="http://www.w3.org/2000/svg" width="38" height="50" viewBox="0 0 38 50">
  <defs>
    <style>
      .cls-1 {
        fill: #fff;
        fill-rule: evenodd;
      }
    </style>
  </defs>
  <path id="Forma_1_копия_2" data-name="Forma 1 копия 2" class="cls-1" d="M449,654.912V622.188a3.953,3.953,0,0,0-3.9-3.993H414.9a3.952,3.952,0,0,0-3.9,3.993v38.819A3.952,3.952,0,0,0,414.9,665h30.2a3.953,3.953,0,0,0,3.9-3.993v-3.194h-1.56v3.194a2.368,2.368,0,0,1-2.34,2.4H414.9a2.368,2.368,0,0,1-2.339-2.4V622.188a2.368,2.368,0,0,1,2.339-2.4h30.2a2.368,2.368,0,0,1,2.34,2.4v32.724H449Zm-31.374-39.878a2.228,2.228,0,0,0-.391-0.034,2.368,2.368,0,0,0-2.339,2.4v1.6h1.56v-1.6a0.808,0.808,0,0,1,.275-0.608,0.766,0.766,0,0,1,.641-0.179,0.864,0.864,0,0,1,.644.873v7.9a0.78,0.78,0,1,1-1.56,0v-3.194H414.9v3.194a2.341,2.341,0,1,0,4.68,0v-7.9A2.448,2.448,0,0,0,417.629,615.034Zm24.355,7.154H422.636v1.6h19.348a2.368,2.368,0,0,1,2.339,2.4v25.971h1.56V626.181A3.952,3.952,0,0,0,441.984,622.188Zm2.568,33.463-4.451,4.557H418.019a2.368,2.368,0,0,1-2.34-2.395v-26.9h-1.56v26.9a3.953,3.953,0,0,0,3.9,3.993h22.4a0.772,0.772,0,0,0,.551-0.234l4.68-4.792Zm-0.229-1.033v1.267l-3.119,3.194v-1.266a0.79,0.79,0,0,1,.78-0.8h0.78v-1.6h-0.78a2.368,2.368,0,0,0-2.34,2.4v3.194a0.79,0.79,0,0,0,.78.8,0.772,0.772,0,0,0,.551-0.234l4.68-4.792a0.809,0.809,0,0,0,.228-0.564v-1.6h-1.56ZM434.4,630.535a24.219,24.219,0,0,0-8.805,0,3.136,3.136,0,0,0-.273.28,3.256,3.256,0,0,0,.273,4.519l3.877,3.619a0.768,0.768,0,0,0,.525.208h0a0.771,0.771,0,0,0,.526-0.208l3.877-3.618a3.139,3.139,0,0,0,.273-0.28A3.256,3.256,0,0,0,434.4,630.535Zm-1.049,3.618L430,637.281l-3.351-3.128a1.589,1.589,0,0,1-.172-0.176,1.632,1.632,0,0,1,.172-2.262,2.1,2.1,0,0,1,2.828,0,0.766,0.766,0,0,0,1.051,0,2.1,2.1,0,0,1,2.826,0,1.683,1.683,0,0,1,.172.176A1.631,1.631,0,0,1,433.355,634.153Zm-11.839,14.229h12.291v1.6H421.516v-1.6Zm0-3.993h17.75v1.6h-17.75v-1.6Zm0,7.993h12.291v1.6H421.516v-1.6Z" transform="translate(-411 -615)"/>
</svg>
