<svg xmlns="http://www.w3.org/2000/svg" width="50" height="50" viewBox="0 0 50 50">
  <defs>
    <style>
      .cls-1 {
        fill: #8c8c8c;
        fill-rule: evenodd;
      }
    </style>
  </defs>
  <path id="Forma_1" data-name="Forma 1" class="cls-1" d="M919.563,635.532a0.814,0.814,0,1,0,.814.814A0.813,0.813,0,0,0,919.563,635.532Zm-19.076,17.2a0.814,0.814,0,1,0,.814.814A0.814,0.814,0,0,0,900.487,652.73Zm-8.139-17.2a0.814,0.814,0,1,0,.814.814A0.813,0.813,0,0,0,892.348,635.532Zm36.957,0.023h-6.486a0.814,0.814,0,1,0,0,1.628h6.486A0.814,0.814,0,0,0,929.305,635.555Zm5.693,6.03v-6.037a3.257,3.257,0,0,0-3.253-3.254h-3.254v-8.348a2.445,2.445,0,0,0-2.442-2.442h-0.81v-5.69a0.814,0.814,0,0,0-.814-0.814H901.248l-0.028,0a0.677,0.677,0,0,0-.1.013h0a0.74,0.74,0,0,0-.105.029l-0.019.007a0.792,0.792,0,0,0-.094.042l-0.006,0a0.851,0.851,0,0,0-.09.057l-0.02.015a0.787,0.787,0,0,0-.082.071h0l-5.59,5.6a0.814,0.814,0,0,0-.345.663h-0.792a2.453,2.453,0,0,0-2.46,2.442v8.348h-3.259A3.258,3.258,0,0,0,885,635.548v15.563a3.257,3.257,0,0,0,3.254,3.254h6.509v9.821a0.814,0.814,0,0,0,.814.814h28.848a0.814,0.814,0,0,0,.813-0.814v-9.821h6.507A3.257,3.257,0,0,0,935,651.111v-9.463c0-.011,0-0.021,0-0.032A0.3,0.3,0,0,0,935,641.585Zm-9.76-18.453h0.811a0.815,0.815,0,0,1,.814.814v8.348h-1.625v-9.162Zm-24.776-5.35v2.909h-2.9Zm-4.07,4.7a0.772,0.772,0,0,0,.018-0.168h4.866a0.814,0.814,0,0,0,.814-0.814v-4.877h21.521v15.666H896.392v-9.807Zm-3.252,1.459h0a0.835,0.835,0,0,1,.833-0.814h0.792v9.162H893.14v-8.348Zm-6.512,11.6a1.627,1.627,0,0,1,1.626-1.626h43.491a1.628,1.628,0,0,1,1.626,1.626V640.8H886.628v-5.254Zm36.983,27.824h-27.22V649.485h27.22v13.887Zm9.76-12.261a1.629,1.629,0,0,1-1.626,1.627h-6.507v-3.253h1.607a0.814,0.814,0,1,0,0-1.628H893.137a0.814,0.814,0,0,0,0,1.628h1.626v3.253h-6.509a1.628,1.628,0,0,1-1.626-1.627V642.43h46.743v8.681Zm-13.826,4.878H900.476a0.814,0.814,0,0,0,0,1.628h19.069A0.814,0.814,0,0,0,919.545,655.989Zm0-3.256H903.732a0.814,0.814,0,0,0,0,1.628h15.813A0.814,0.814,0,1,0,919.545,652.733Z" transform="translate(-885 -615)"/>
</svg>
