<svg xmlns="http://www.w3.org/2000/svg" width="50" height="50" viewBox="0 0 50 50">
  <defs>
    <style>
      .cls-1 {
        fill: #8c8c8c;
        fill-rule: evenodd;
      }
    </style>
  </defs>
  <path id="Forma_1" data-name="Forma 1" class="cls-1" d="M454.2,840.213H409.787V795.8a0.8,0.8,0,0,0-1.6,0v6.737H405.8a0.8,0.8,0,1,0,0,1.6h2.393v5.94H405.8a0.8,0.8,0,1,0,0,1.6h2.393v5.94H405.8a0.8,0.8,0,0,0,0,1.6h2.393v5.94H405.8a0.8,0.8,0,1,0,0,1.595h2.393v5.94H405.8a0.8,0.8,0,0,0,0,1.6h2.393v6.738a0.8,0.8,0,0,0,.8.8H420.78V844.2a0.8,0.8,0,0,0,1.6,0v-2.394h18.44V844.2a0.8,0.8,0,1,0,1.6,0v-2.394H454.2A0.8,0.8,0,1,0,454.2,840.213Zm-40.957-1.6a0.8,0.8,0,0,0,.8-0.8V819.2h6.738v18.617a0.8,0.8,0,0,0,1.6,0V826.737h6.294v11.082a0.8,0.8,0,0,0,1.6,0V825.94a0.8,0.8,0,0,0-.8-0.8h-7.092V818.4a0.8,0.8,0,0,0-.8-0.8h-8.333a0.8,0.8,0,0,0-.8.8v19.415A0.8,0.8,0,0,0,413.245,838.617Zm20.478,0a0.8,0.8,0,0,0,.8-0.8V804.131h6.295v33.688a0.8,0.8,0,1,0,1.6,0V811.667h6.738v26.152a0.8,0.8,0,0,0,1.6,0v-26.95a0.8,0.8,0,0,0-.8-0.8h-7.536v-6.738a0.8,0.8,0,0,0-.8-0.8h-7.89a0.8,0.8,0,0,0-.8.8v34.486A0.8,0.8,0,0,0,433.723,838.617Z" transform="translate(-405 -795)"/>
</svg>
