<svg xmlns="http://www.w3.org/2000/svg" width="30" height="50" viewBox="0 0 30 50">
  <defs>
    <style>
      .cls-1 {
        fill-rule: evenodd;
      }
    </style>
  </defs>
  <path id="Forma_1" data-name="Forma 1" class="cls-1" d="M922.117,806.762A0.875,0.875,0,0,0,923,805.9v-7.428A3.5,3.5,0,0,0,919.47,795H896.529A3.5,3.5,0,0,0,893,798.467v42.2A4.378,4.378,0,0,0,897.412,845h21.176A4.378,4.378,0,0,0,923,840.667v-6.562a0.882,0.882,0,0,0-1.764,0v3.962h-26.47V801.933h26.47V805.9A0.875,0.875,0,0,0,922.117,806.762ZM921.235,839.8v0.867a2.624,2.624,0,0,1-2.647,2.6H897.412a2.624,2.624,0,0,1-2.647-2.6V839.8h26.47Zm-26.47-39.6v-1.733a1.749,1.749,0,0,1,1.764-1.734H919.47a1.749,1.749,0,0,1,1.765,1.734V800.2h-26.47Zm15,40.467h-3.529a0.867,0.867,0,1,0,0,1.733h3.529A0.867,0.867,0,1,0,909.764,840.667Z" transform="translate(-893 -795)"/>
</svg>
