<svg xmlns="http://www.w3.org/2000/svg" width="24" height="22" viewBox="0 0 24 22">
  <defs>
    <style>
      .cls-1 {
        fill: #8c8c8c;
        fill-rule: evenodd;
      }
    </style>
  </defs>
  <path id="Forma_1" data-name="Forma 1" class="cls-1" d="M85.182,377.442H64.818A1.84,1.84,0,0,1,63,375.585V360.861A1.84,1.84,0,0,1,64.818,359H85.182A1.84,1.84,0,0,1,87,360.861v14.724A1.84,1.84,0,0,1,85.182,377.442ZM64.818,359.747a1.1,1.1,0,0,0-1.091,1.114v14.724a1.1,1.1,0,0,0,1.091,1.114H85.182a1.1,1.1,0,0,0,1.091-1.114V360.861a1.1,1.1,0,0,0-1.091-1.114H64.818Zm14.818,21.247H70.364a0.372,0.372,0,0,1,0-.743h9.273A0.372,0.372,0,0,1,79.636,380.994Zm-4.636,0a0.368,0.368,0,0,1-.363-0.372v-3.551a0.364,0.364,0,1,1,.727,0v3.551A0.368,0.368,0,0,1,75,380.994Zm-0.933-12.106v4.741a1.193,1.193,0,0,1-1.109,1.259h-2.6a2.77,2.77,0,0,1-2.443-1.309,5.478,5.478,0,0,1-.712-2.94,11.884,11.884,0,0,1,1.573-5.707c1.137-1.955,2.623-3.032,4.185-3.032a1.193,1.193,0,0,1,1.109,1.259v1.294a0.418,0.418,0,1,1-.835,0v-1.294a0.387,0.387,0,0,0-.274-0.422c-1.69,0-2.9,1.64-3.463,2.617a11.169,11.169,0,0,0-1.46,5.285,4.666,4.666,0,0,0,.579,2.487,1.946,1.946,0,0,0,1.741.924h2.6a0.385,0.385,0,0,0,.274-0.421v-4.741A0.418,0.418,0,1,1,74.067,368.888Zm7.16-3.956c-1.137-1.955-2.623-3.032-4.185-3.032a1.193,1.193,0,0,0-1.109,1.259v1.31a0.418,0.418,0,1,0,.835,0v-1.31a0.386,0.386,0,0,1,.274-0.422c1.69,0,2.895,1.64,3.463,2.617a11.17,11.17,0,0,1,1.46,5.285,4.667,4.667,0,0,1-.579,2.487,1.946,1.946,0,0,1-1.741.924h-2.6a0.385,0.385,0,0,1-.274-0.421v-4.8a0.418,0.418,0,1,0-.835,0v4.8a1.193,1.193,0,0,0,1.109,1.259h2.6a2.77,2.77,0,0,0,2.443-1.309,5.479,5.479,0,0,0,.712-2.94A11.885,11.885,0,0,0,81.227,364.932Zm-3.889,5.082a0.418,0.418,0,1,0,.835,0v-1.221l1.1,0.524a0.418,0.418,0,0,0,.359-0.756l-1.624-.775L75.417,365v-3.134a0.417,0.417,0,1,0-.835,0V365l-2.589,2.79-1.625.775a0.418,0.418,0,0,0,.359.756l1.1-.524v1.221a0.418,0.418,0,1,0,.835,0v-1.72L75,365.776l2.338,2.518v1.72h0Z" transform="translate(-63 -359)"/>
</svg>
