<svg xmlns="http://www.w3.org/2000/svg" width="24" height="22" viewBox="0 0 24 22">
  <defs>
    <style>
      .cls-1 {
        fill: #8c8c8c;
        fill-rule: evenodd;
      }
    </style>
  </defs>
  <path id="Эллипс_2_копия" data-name="Эллипс 2 копия" class="cls-1" d="M78.182,427.442H57.818A1.84,1.84,0,0,1,56,425.585V410.861A1.84,1.84,0,0,1,57.818,409H78.182A1.84,1.84,0,0,1,80,410.861v14.724A1.84,1.84,0,0,1,78.182,427.442ZM57.818,409.747a1.1,1.1,0,0,0-1.091,1.114v14.724a1.1,1.1,0,0,0,1.091,1.114H78.182a1.1,1.1,0,0,0,1.091-1.114V410.861a1.1,1.1,0,0,0-1.091-1.114H57.818Zm14.818,21.246H63.364a0.371,0.371,0,0,1,0-.742h9.273A0.371,0.371,0,0,1,72.636,430.993Zm-4.636,0a0.367,0.367,0,0,1-.363-0.371V427.07a0.364,0.364,0,1,1,.727,0v3.552A0.367,0.367,0,0,1,68,430.993Zm0-16.977a16.3,16.3,0,0,0,3.594-.731s3.563,6.3,3.611,6.285A8.482,8.482,0,0,1,68,423.055a8.479,8.479,0,0,1-7.21-3.493c0-.036,3.616-6.277,3.616-6.277A16.3,16.3,0,0,0,68,414.016Zm0.01,0.592a15.275,15.275,0,0,0,3.23-.626s3.2,5.4,3.245,5.387a7.751,7.751,0,0,1-6.475,2.987,7.746,7.746,0,0,1-6.479-2.994c0-.031,3.25-5.38,3.25-5.38A15.278,15.278,0,0,0,68.012,414.608Z" transform="translate(-56 -409)"/>
</svg>
