<svg xmlns="http://www.w3.org/2000/svg" width="28" height="20" viewBox="0 0 28 20">
  <defs>
    <style>
      .cls-1 {
        fill: #8c8c8c;
        fill-rule: evenodd;
      }
    </style>
  </defs>
  <path id="Forma_1" data-name="Forma 1" class="cls-1" d="M83.521,465.584H81.152a7.159,7.159,0,0,0,.506-5.143A6.309,6.309,0,0,0,75.669,456a7.645,7.645,0,0,0-2.582.468,13.53,13.53,0,0,0-2.981,1.454,12.917,12.917,0,0,0-2.981-1.454A7.762,7.762,0,0,0,64.543,456a6.309,6.309,0,0,0-5.988,4.442,7.375,7.375,0,0,0,.745,5.61H56.426a0.416,0.416,0,1,0,0,.831h3.38a5.475,5.475,0,0,0,.479.7c2.768,3.9,8.783,8.13,9.875,8.389V476a0.083,0.083,0,0,0,.053-0.026h0.08v-0.026c0.932-.441,6.707-4.078,9.742-8.39a9.506,9.506,0,0,0,.745-1.168h2.795A0.416,0.416,0,0,0,84,465.973,0.444,0.444,0,0,0,83.521,465.584Zm-4.259,1.532c-2.821,4.026-8.011,7.273-9.129,7.974-1.145-.7-6.308-3.974-9.156-7.974l-0.16-.234H64.73a0.44,0.44,0,0,0,.4-0.234l1.783-3.428,2.795,6.987a0.436,0.436,0,0,0,.4.26h0.027a0.422,0.422,0,0,0,.4-0.312l2.448-8.182,1.3,4.13a0.431,0.431,0,0,0,.346.286,0.465,0.465,0,0,0,.426-0.182l1.038-1.48,0.878,1.454a0.429,0.429,0,0,0,.373.208h2.4C79.582,466.648,79.422,466.882,79.262,467.116Zm0.958-1.532H77.612l-1.091-1.819a0.429,0.429,0,0,0-.373-0.208,0.408,0.408,0,0,0-.373.182l-0.905,1.3-1.464-4.649a0.493,0.493,0,0,0-.426-0.312,0.454,0.454,0,0,0-.426.312l-2.475,8.338-2.688-6.7a0.4,0.4,0,0,0-.373-0.26,0.416,0.416,0,0,0-.4.234l-2.1,4.026H60.285a6.864,6.864,0,0,1-.878-5.351,5.415,5.415,0,0,1,5.163-3.817,7.228,7.228,0,0,1,2.289.415,13.042,13.042,0,0,1,3.007,1.506,0.412,0.412,0,0,0,.532,0,11.7,11.7,0,0,1,3.008-1.506,6.567,6.567,0,0,1,2.289-.415,5.441,5.441,0,0,1,5.164,3.817A6.685,6.685,0,0,1,80.22,465.584Z" transform="translate(-56 -456)"/>
</svg>
