<svg xmlns="http://www.w3.org/2000/svg" width="24" height="24" viewBox="0 0 24 24">
  <defs>
    <style>
      .cls-1 {
        fill: #8c8c8c;
        fill-rule: evenodd;
      }
    </style>
  </defs>
  <path id="Forma_1" data-name="Forma 1" class="cls-1" d="M73.8,508.8H73.4V508H72.2a1.2,1.2,0,0,0,0,2.4h1.2v-0.8h0.4a2,2,0,0,1,2,2v5.6a6,6,0,1,1-12,0v-5.6a2,2,0,0,1,2-2h0.4v0.8h1.2a1.2,1.2,0,1,0,0-2.4H66.2v0.8H65.8a2.8,2.8,0,0,0-2.8,2.8v5.6a6.8,6.8,0,0,0,13.6,0v-5.6A2.8,2.8,0,0,0,73.8,508.8Zm-1.2.8H72.2a0.4,0.4,0,0,1,0-.8h0.4v0.8Zm-5.6-.8h0.4a0.4,0.4,0,1,1,0,.8H67v-0.8ZM82.6,516v10.4a1.2,1.2,0,1,1-2.4,0v-2.2a2.2,2.2,0,0,0-4.4,0v4.2a2.8,2.8,0,1,1-5.6,0V524H69.4v4.4a3.6,3.6,0,0,0,7.2,0v-4.2a1.4,1.4,0,1,1,2.8,0v2.2a2,2,0,1,0,4,0V516H82.6Zm0.4-8a4,4,0,1,0,4,4A4,4,0,0,0,83,508Zm0,7.2a3.2,3.2,0,1,1,3.2-3.2A3.2,3.2,0,0,1,83,515.2Zm0-4.8a1.6,1.6,0,1,0,1.6,1.6A1.6,1.6,0,0,0,83,510.4Zm0,2.4a0.8,0.8,0,1,1,.8-0.8A0.8,0.8,0,0,1,83,512.8Z" transform="translate(-63 -508)"/>
</svg>
