<svg xmlns="http://www.w3.org/2000/svg" width="20" height="22" viewBox="0 0 20 22">
  <defs>
    <style>
      .cls-1 {
        fill: #8c8c8c;
        fill-rule: evenodd;
      }
    </style>
  </defs>
  <path class="cls-1" d="M84.652,559.212H84.257v-3.083A1.093,1.093,0,0,0,83.909,554H80.194a1.093,1.093,0,0,0-.348,2.129v3.083H70.154v-3.083A1.093,1.093,0,0,0,69.806,554H66.091a1.093,1.093,0,0,0-.348,2.129v3.083H65.348a0.349,0.349,0,0,0,0,.7h0.395v9.705a2.206,2.206,0,1,0,4.411,0V559.91h4.5v13.9H72.028a1.838,1.838,0,0,0-1.834,1.838,0.348,0.348,0,0,0,.348.349h8.915a0.348,0.348,0,0,0,.348-0.349,1.838,1.838,0,0,0-1.834-1.838H75.348v-13.9h4.5v9.705a2.206,2.206,0,1,0,4.411,0V559.91h0.395A0.349,0.349,0,0,0,84.652,559.212ZM66.091,554.7h3.715a0.4,0.4,0,0,1,0,.792H66.091A0.4,0.4,0,0,1,66.091,554.7Zm0.348,1.49h3.018v3.025H66.439v-3.025Zm1.509,14.94a1.512,1.512,0,0,1-1.509-1.512v-7.387c0.029,0.016.059,0.034,0.091,0.053a1.468,1.468,0,0,0,1.6,0,0.776,0.776,0,0,1,.881,0,1.5,1.5,0,0,0,.45.2v7.136A1.512,1.512,0,0,1,67.948,571.127Zm1.509-9.391c-0.03-.016-0.059-0.034-0.092-0.054a1.469,1.469,0,0,0-1.6,0,0.774,0.774,0,0,1-.879,0,1.493,1.493,0,0,0-.45-0.2V559.91h3.018v1.826h0Zm9.6,13.565h-8.11a1.139,1.139,0,0,1,1.083-.791h5.944A1.139,1.139,0,0,1,79.055,575.3Zm1.139-20.6h3.715a0.4,0.4,0,0,1,0,.792H80.194A0.4,0.4,0,0,1,80.194,554.7Zm0.348,1.49H83.56v3.025H80.542v-3.025Zm1.509,14.94a1.512,1.512,0,0,1-1.509-1.512v-7.387c0.029,0.016.059,0.034,0.091,0.053a1.468,1.468,0,0,0,1.6,0,0.776,0.776,0,0,1,.881,0,1.5,1.5,0,0,0,.45.2v7.136A1.512,1.512,0,0,1,82.051,571.127Zm1.509-9.391c-0.029-.016-0.059-0.034-0.092-0.054a1.469,1.469,0,0,0-1.6,0,0.774,0.774,0,0,1-.879,0,1.492,1.492,0,0,0-.45-0.2V559.91H83.56v1.826h0Zm-15.24,1.572a0.349,0.349,0,1,0,.246.1A0.349,0.349,0,0,0,68.32,563.308Zm-1.115,1.117a0.349,0.349,0,1,0,.246.1A0.349,0.349,0,0,0,67.205,564.425Zm15.217-.745a0.35,0.35,0,1,0,.246.1A0.351,0.351,0,0,0,82.423,563.68Zm-0.743,1.49a0.348,0.348,0,1,0,.246.1A0.348,0.348,0,0,0,81.68,565.17Zm0.743,1.861a0.35,0.35,0,0,0,0,.7,0.346,0.346,0,0,0,.246-0.1A0.35,0.35,0,0,0,82.423,567.031Zm-14.1-1.489a0.349,0.349,0,1,0,.246.1A0.349,0.349,0,0,0,68.32,565.542Z" transform="translate(-65 -554)"/>
</svg>
