<svg xmlns="http://www.w3.org/2000/svg" width="13" height="12" viewBox="0 0 13 12">
  <defs>
    <style>
      .cls-1 {
        fill: #888;
        fill-rule: evenodd;
      }
    </style>
  </defs>
  <path id="Forma_1_копия" data-name="Forma 1 копия" class="cls-1" d="M1260.89,22.869a0.447,0.447,0,0,0,.35.155,0.477,0.477,0,0,0,.35-0.155l2.25-2.488a0.2,0.2,0,0,0,.06-0.078,0.044,0.044,0,0,0,.02-0.026,0.306,0.306,0,0,1,.03-0.064c0-.013,0-0.026.01-0.026a0.189,0.189,0,0,0,.03-0.065,0.539,0.539,0,0,0,0-.207,0.076,0.076,0,0,0-.03-0.065c0-.013,0-0.026-0.01-0.026l-0.03-.078s0-.013-0.02-0.013a0.2,0.2,0,0,0-.06-0.078l-2.25-2.489a0.473,0.473,0,0,0-.7,0,0.543,0.543,0,0,0,0,.749l1.41,1.584h-7.57a0.531,0.531,0,0,0,0,1.06h7.57l-1.41,1.584A0.511,0.511,0,0,0,1260.89,22.869ZM1251.46,26h7.08a0.492,0.492,0,0,0,.46-0.53V22.514a0.465,0.465,0,1,0-.92,0V24.94h-6.16V15.059h6.16v2.427a0.465,0.465,0,1,0,.92,0V14.53a0.492,0.492,0,0,0-.46-0.53h-7.08a0.492,0.492,0,0,0-.46.53V25.47A0.505,0.505,0,0,0,1251.46,26Z" transform="translate(-1251 -14)"/>
</svg>
