<svg xmlns="http://www.w3.org/2000/svg" width="8.97" height="12" viewBox="0 0 8.97 12">
  <defs>
    <style>
      .cls-1 {
        fill: #fff;
        fill-rule: evenodd;
      }
    </style>
  </defs>
  <path class="cls-1" d="M1315.49,1574a0.478,0.478,0,0,0-.47.48v11.04a0.47,0.47,0,1,0,.94,0v-11.04A0.478,0.478,0,0,0,1315.49,1574Zm4.34,4.28-4.01-4.14a0.465,0.465,0,0,0-.67,0l-4.01,4.14a0.477,0.477,0,0,0,0,.68,0.453,0.453,0,0,0,.66,0l3.69-3.79,3.68,3.79a0.438,0.438,0,0,0,.66,0A0.477,0.477,0,0,0,1319.83,1578.28Z" transform="translate(-1311.03 -1574)"/>
</svg>
